<svg width="41" height="54" viewBox="0 0 41 54" fill="none" xmlns="http://www.w3.org/2000/svg">
<path d="M5.56 49.7432C5.48533 49.7432 5.42 49.7152 5.364 49.6592C5.308 49.6032 5.28 49.5378 5.28 49.4632L5.308 49.3092L8.78 40.2512C8.85467 40.0458 9.004 39.9432 9.228 39.9432H10.124C10.348 39.9432 10.4973 40.0458 10.572 40.2512L14.044 49.3092L14.072 49.4632C14.072 49.5378 14.0393 49.6032 13.974 49.6592C13.918 49.7152 13.8527 49.7432 13.778 49.7432H13.12C13.0267 49.7432 12.9473 49.7198 12.882 49.6732C12.826 49.6172 12.7887 49.5612 12.77 49.5052L11.986 47.4892H7.352L6.582 49.5052C6.50733 49.6638 6.39067 49.7432 6.232 49.7432H5.56ZM7.758 46.3272H11.594L9.676 41.3012L7.758 46.3272ZM15.8916 49.7432C15.7982 49.7432 15.7236 49.7152 15.6676 49.6592C15.6116 49.5938 15.5836 49.5145 15.5836 49.4212V40.2792C15.5836 40.1765 15.6116 40.0972 15.6676 40.0412C15.7236 39.9758 15.7982 39.9432 15.8916 39.9432H19.3076C20.3716 39.9432 21.2022 40.1952 21.7996 40.6992C22.4062 41.1938 22.7096 41.9172 22.7096 42.8692C22.7096 43.5785 22.5322 44.1618 22.1776 44.6192C21.8229 45.0765 21.3282 45.3938 20.6936 45.5712L22.8496 49.3092C22.8776 49.3652 22.8916 49.4165 22.8916 49.4632C22.8916 49.5378 22.8636 49.6032 22.8076 49.6592C22.7516 49.7152 22.6862 49.7432 22.6116 49.7432H21.9956C21.8556 49.7432 21.7436 49.7105 21.6596 49.6452C21.5849 49.5798 21.5149 49.4865 21.4496 49.3652L19.3916 45.7812H16.8996V49.4212C16.8996 49.5145 16.8669 49.5938 16.8016 49.6592C16.7362 49.7152 16.6569 49.7432 16.5636 49.7432H15.8916ZM19.2516 44.6332C20.6609 44.6332 21.3656 44.0405 21.3656 42.8552C21.3656 41.6698 20.6609 41.0772 19.2516 41.0772H16.8996V44.6332H19.2516ZM28.23 49.8832C26.9887 49.8832 26.0414 49.5472 25.388 48.8752C24.744 48.1938 24.3987 47.2652 24.352 46.0892C24.3427 45.8372 24.338 45.4265 24.338 44.8572C24.338 44.2785 24.3427 43.8585 24.352 43.5972C24.3987 42.4212 24.744 41.4972 25.388 40.8252C26.0414 40.1438 26.9887 39.8032 28.23 39.8032C29.0607 39.8032 29.7654 39.9525 30.344 40.2512C30.9227 40.5405 31.3567 40.9232 31.646 41.3992C31.9447 41.8752 32.108 42.3838 32.136 42.9252C32.136 43.0092 32.1034 43.0792 32.038 43.1352C31.982 43.1818 31.912 43.2052 31.828 43.2052H31.128C31.0347 43.2052 30.96 43.1818 30.904 43.1352C30.848 43.0885 30.806 43.0092 30.778 42.8972C30.6194 42.1785 30.33 41.6745 29.91 41.3852C29.4994 41.0958 28.9394 40.9512 28.23 40.9512C26.606 40.9512 25.7614 41.8565 25.696 43.6672C25.6867 43.9192 25.682 44.3065 25.682 44.8292C25.682 45.3518 25.6867 45.7485 25.696 46.0192C25.7614 47.8205 26.606 48.7212 28.23 48.7212C28.93 48.7212 29.49 48.5765 29.91 48.2872C30.33 47.9978 30.6194 47.4985 30.778 46.7892C30.806 46.6772 30.848 46.5978 30.904 46.5512C30.96 46.5045 31.0347 46.4812 31.128 46.4812H31.828C31.912 46.4812 31.982 46.5092 32.038 46.5652C32.1034 46.6118 32.136 46.6772 32.136 46.7612C32.108 47.3025 31.9447 47.8112 31.646 48.2872C31.3567 48.7632 30.9227 49.1505 30.344 49.4492C29.7654 49.7385 29.0607 49.8832 28.23 49.8832ZM36.5046 49.7432C36.4113 49.7432 36.3319 49.7152 36.2666 49.6592C36.2106 49.5938 36.1826 49.5145 36.1826 49.4212V41.1472H33.4806C33.3873 41.1472 33.3079 41.1192 33.2426 41.0632C33.1866 40.9978 33.1586 40.9185 33.1586 40.8252V40.2792C33.1586 40.1765 33.1866 40.0972 33.2426 40.0412C33.3079 39.9758 33.3873 39.9432 33.4806 39.9432H40.2006C40.3033 39.9432 40.3826 39.9758 40.4386 40.0412C40.4946 40.0972 40.5226 40.1765 40.5226 40.2792V40.8252C40.5226 40.9185 40.4899 40.9978 40.4246 41.0632C40.3686 41.1192 40.2939 41.1472 40.2006 41.1472H37.5126V49.4212C37.5126 49.5145 37.4799 49.5938 37.4146 49.6592C37.3493 49.7152 37.2699 49.7432 37.1766 49.7432H36.5046Z" fill="#91795C"/>
<path d="M8.84314 4.81982L23.0144 27.2987C11.8872 33.1821 1.31953 19.1881 8.84314 4.81982Z" fill="white" stroke="#91795C" stroke-width="3"/>
<path d="M20.5316 3.73633L27.6914 28.2072C15.5781 31.1797 9.47526 15.5417 20.5316 3.73633Z" fill="white" stroke="#91795C" stroke-width="3"/>
<path d="M33.2245 2.74316V28.7432C20.6416 28.7432 19.1612 11.7565 33.2245 2.74316Z" fill="white" stroke="#91795C" stroke-width="3"/>
</svg>
